<svg width="302" height="104" viewBox="0 0 302 104" fill="none" xmlns="http://www.w3.org/2000/svg">
<g filter="url(#filter0_b_113_672)">
<rect x="0.158203" y="0.40332" width="301.255" height="103.307" rx="20" fill="white" fill-opacity="0.8"/>
</g>
<path d="M112.538 44.8994V42.6194L118.01 36.7874C118.746 35.9874 119.274 35.2834 119.594 34.6754C119.914 34.0514 120.074 33.4194 120.074 32.7794C120.074 31.1474 119.09 30.3314 117.122 30.3314C115.586 30.3314 114.17 30.9074 112.874 32.0594L111.842 29.7554C112.514 29.1474 113.354 28.6594 114.362 28.2914C115.37 27.9234 116.418 27.7394 117.506 27.7394C119.314 27.7394 120.698 28.1474 121.658 28.9634C122.634 29.7794 123.122 30.9474 123.122 32.4674C123.122 33.4914 122.874 34.4754 122.378 35.4194C121.898 36.3634 121.138 37.3794 120.098 38.4674L116.378 42.3554H123.77V44.8994H112.538ZM132.833 45.1394C131.729 45.1394 130.657 44.9714 129.617 44.6354C128.577 44.2834 127.729 43.8114 127.073 43.2194L128.081 40.8674C129.537 41.9874 131.105 42.5474 132.785 42.5474C133.793 42.5474 134.577 42.2914 135.137 41.7794C135.713 41.2514 136.001 40.5474 136.001 39.6674C136.001 38.7714 135.729 38.0514 135.185 37.5074C134.641 36.9474 133.897 36.6674 132.953 36.6674C131.609 36.6674 130.497 37.2034 129.617 38.2754H127.553V27.9794H137.945V30.5234H130.553V35.1074C131.401 34.4674 132.441 34.1474 133.673 34.1474C134.745 34.1474 135.673 34.3794 136.457 34.8434C137.257 35.2914 137.873 35.9234 138.305 36.7394C138.753 37.5394 138.977 38.4754 138.977 39.5474C138.977 40.6514 138.729 41.6274 138.233 42.4754C137.737 43.3074 137.025 43.9634 136.097 44.4434C135.185 44.9074 134.097 45.1394 132.833 45.1394ZM147.559 45.1394C145.559 45.1394 144.031 44.3874 142.975 42.8834C141.919 41.3634 141.391 39.2034 141.391 36.4034C141.391 33.5714 141.919 31.4194 142.975 29.9474C144.031 28.4754 145.559 27.7394 147.559 27.7394C149.575 27.7394 151.103 28.4754 152.143 29.9474C153.199 31.4194 153.727 33.5634 153.727 36.3794C153.727 39.1954 153.199 41.3634 152.143 42.8834C151.087 44.3874 149.559 45.1394 147.559 45.1394ZM147.559 42.6194C148.647 42.6194 149.447 42.1234 149.959 41.1314C150.487 40.1234 150.751 38.5394 150.751 36.3794C150.751 34.2354 150.487 32.6834 149.959 31.7234C149.447 30.7474 148.647 30.2594 147.559 30.2594C146.487 30.2594 145.687 30.7474 145.159 31.7234C144.631 32.6834 144.367 34.2354 144.367 36.3794C144.367 38.5394 144.631 40.1234 145.159 41.1314C145.687 42.1234 146.487 42.6194 147.559 42.6194ZM156.79 44.8994V27.9794H159.79V38.1554H159.838L164.566 33.1634H168.19L162.862 38.7794L168.526 44.8994H164.854L159.838 39.6674H159.79V44.8994H156.79Z" fill="#595959"/>
<path d="M110.838 76.0239L117.118 61.9239H118.838L125.138 76.0239H123.018L121.538 72.5839H114.398L112.938 76.0239H110.838ZM117.958 64.2239L115.138 70.9039H120.838L117.998 64.2239H117.958ZM130.448 76.2039C129.648 76.2039 128.901 76.1039 128.208 75.9039C127.515 75.6906 126.935 75.3973 126.468 75.0239L127.048 73.6639C127.541 74.0106 128.081 74.2773 128.668 74.4639C129.268 74.6506 129.868 74.7439 130.468 74.7439C131.175 74.7439 131.708 74.6173 132.068 74.3639C132.428 74.1106 132.608 73.7706 132.608 73.3439C132.608 72.9973 132.488 72.7306 132.248 72.5439C132.008 72.3439 131.648 72.1906 131.168 72.0839L129.268 71.7039C127.588 71.3573 126.748 70.4906 126.748 69.1039C126.748 68.1839 127.115 67.4506 127.848 66.9039C128.581 66.3573 129.541 66.0839 130.728 66.0839C131.408 66.0839 132.055 66.1839 132.668 66.3839C133.295 66.5839 133.815 66.8839 134.228 67.2839L133.648 68.6439C133.248 68.2973 132.788 68.0306 132.268 67.8439C131.748 67.6573 131.235 67.5639 130.728 67.5639C130.035 67.5639 129.508 67.6973 129.148 67.9639C128.788 68.2173 128.608 68.5639 128.608 69.0039C128.608 69.6706 129.048 70.0973 129.928 70.2839L131.828 70.6639C132.695 70.8373 133.348 71.1306 133.788 71.5439C134.241 71.9573 134.468 72.5173 134.468 73.2239C134.468 74.1573 134.101 74.8906 133.368 75.4239C132.635 75.9439 131.661 76.2039 130.448 76.2039ZM140.536 76.2039C139.736 76.2039 138.989 76.1039 138.296 75.9039C137.602 75.6906 137.022 75.3973 136.556 75.0239L137.136 73.6639C137.629 74.0106 138.169 74.2773 138.756 74.4639C139.356 74.6506 139.956 74.7439 140.556 74.7439C141.262 74.7439 141.796 74.6173 142.156 74.3639C142.516 74.1106 142.696 73.7706 142.696 73.3439C142.696 72.9973 142.576 72.7306 142.336 72.5439C142.096 72.3439 141.736 72.1906 141.256 72.0839L139.356 71.7039C137.676 71.3573 136.836 70.4906 136.836 69.1039C136.836 68.1839 137.202 67.4506 137.936 66.9039C138.669 66.3573 139.629 66.0839 140.816 66.0839C141.496 66.0839 142.142 66.1839 142.756 66.3839C143.382 66.5839 143.902 66.8839 144.316 67.2839L143.736 68.6439C143.336 68.2973 142.876 68.0306 142.356 67.8439C141.836 67.6573 141.322 67.5639 140.816 67.5639C140.122 67.5639 139.596 67.6973 139.236 67.9639C138.876 68.2173 138.696 68.5639 138.696 69.0039C138.696 69.6706 139.136 70.0973 140.016 70.2839L141.916 70.6639C142.782 70.8373 143.436 71.1306 143.876 71.5439C144.329 71.9573 144.556 72.5173 144.556 73.2239C144.556 74.1573 144.189 74.8906 143.456 75.4239C142.722 75.9439 141.749 76.2039 140.536 76.2039ZM147.023 64.0039V61.9039H149.383V64.0039H147.023ZM147.203 76.0239V66.2639H149.223V76.0239H147.203ZM155.886 76.2039C155.086 76.2039 154.34 76.1039 153.646 75.9039C152.953 75.6906 152.373 75.3973 151.906 75.0239L152.486 73.6639C152.98 74.0106 153.52 74.2773 154.106 74.4639C154.706 74.6506 155.306 74.7439 155.906 74.7439C156.613 74.7439 157.146 74.6173 157.506 74.3639C157.866 74.1106 158.046 73.7706 158.046 73.3439C158.046 72.9973 157.926 72.7306 157.686 72.5439C157.446 72.3439 157.086 72.1906 156.606 72.0839L154.706 71.7039C153.026 71.3573 152.186 70.4906 152.186 69.1039C152.186 68.1839 152.553 67.4506 153.286 66.9039C154.02 66.3573 154.98 66.0839 156.166 66.0839C156.846 66.0839 157.493 66.1839 158.106 66.3839C158.733 66.5839 159.253 66.8839 159.666 67.2839L159.086 68.6439C158.686 68.2973 158.226 68.0306 157.706 67.8439C157.186 67.6573 156.673 67.5639 156.166 67.5639C155.473 67.5639 154.946 67.6973 154.586 67.9639C154.226 68.2173 154.046 68.5639 154.046 69.0039C154.046 69.6706 154.486 70.0973 155.366 70.2839L157.266 70.6639C158.133 70.8373 158.786 71.1306 159.226 71.5439C159.68 71.9573 159.906 72.5173 159.906 73.2239C159.906 74.1573 159.54 74.8906 158.806 75.4239C158.073 75.9439 157.1 76.2039 155.886 76.2039ZM166.616 76.2039C165.389 76.2039 164.476 75.8906 163.876 75.2639C163.276 74.6373 162.976 73.7306 162.976 72.5439V67.8239H161.076V66.2639H162.976V63.3239H164.996V66.2639H168.016V67.8239H164.996V72.3839C164.996 73.0906 165.143 73.6239 165.436 73.9839C165.743 74.3439 166.236 74.5239 166.916 74.5239C167.129 74.5239 167.336 74.5039 167.536 74.4639C167.736 74.4106 167.936 74.3506 168.136 74.2839L168.456 75.8039C168.256 75.9239 167.976 76.0173 167.616 76.0839C167.269 76.1639 166.936 76.2039 166.616 76.2039ZM174.643 76.2039C173.043 76.2039 171.783 75.7573 170.863 74.8639C169.943 73.9573 169.483 72.7239 169.483 71.1639C169.483 70.1639 169.683 69.2839 170.083 68.5239C170.496 67.7506 171.063 67.1506 171.783 66.7239C172.503 66.2973 173.33 66.0839 174.263 66.0839C175.61 66.0839 176.67 66.5173 177.443 67.3839C178.216 68.2373 178.603 69.4173 178.603 70.9239V71.6039H171.443C171.59 73.6306 172.663 74.6439 174.663 74.6439C175.223 74.6439 175.77 74.5573 176.303 74.3839C176.85 74.2106 177.363 73.9239 177.843 73.5239L178.443 74.9239C178.003 75.3239 177.436 75.6373 176.743 75.8639C176.05 76.0906 175.35 76.2039 174.643 76.2039ZM174.343 67.5039C173.503 67.5039 172.836 67.7639 172.343 68.2839C171.85 68.8039 171.55 69.4973 171.443 70.3639H176.903C176.863 69.4573 176.623 68.7573 176.183 68.2639C175.743 67.7573 175.13 67.5039 174.343 67.5039ZM184.925 76.2039C184.072 76.2039 183.319 76.0039 182.665 75.6039C182.025 75.1906 181.525 74.6039 181.165 73.8439C180.805 73.0839 180.625 72.1839 180.625 71.1439C180.625 70.1039 180.805 69.2106 181.165 68.4639C181.525 67.7039 182.025 67.1173 182.665 66.7039C183.305 66.2906 184.059 66.0839 184.925 66.0839C185.659 66.0839 186.312 66.2439 186.885 66.5639C187.459 66.8839 187.885 67.3173 188.165 67.8639V61.9239H190.185V76.0239H188.205V74.3239C187.925 74.9106 187.492 75.3706 186.905 75.7039C186.332 76.0373 185.672 76.2039 184.925 76.2039ZM185.445 74.6439C186.272 74.6439 186.939 74.3439 187.445 73.7439C187.952 73.1439 188.205 72.2773 188.205 71.1439C188.205 70.0106 187.952 69.1506 187.445 68.5639C186.939 67.9639 186.272 67.6639 185.445 67.6639C184.605 67.6639 183.932 67.9639 183.425 68.5639C182.919 69.1506 182.665 70.0106 182.665 71.1439C182.665 72.2773 182.919 73.1439 183.425 73.7439C183.932 74.3439 184.605 74.6439 185.445 74.6439ZM203.996 76.2039C202.889 76.2039 201.876 76.0639 200.956 75.7839C200.036 75.4906 199.256 75.0839 198.616 74.5639L199.276 72.9239C199.942 73.4306 200.656 73.8106 201.416 74.0639C202.176 74.3173 203.036 74.4439 203.996 74.4439C205.129 74.4439 205.962 74.2439 206.496 73.8439C207.042 73.4306 207.316 72.8973 207.316 72.2439C207.316 71.7106 207.122 71.2906 206.736 70.9839C206.349 70.6639 205.702 70.4106 204.796 70.2239L202.656 69.7839C201.389 69.5173 200.442 69.0773 199.816 68.4639C199.202 67.8506 198.896 67.0239 198.896 65.9839C198.896 65.1439 199.116 64.4039 199.556 63.7639C200.009 63.1239 200.636 62.6306 201.436 62.2839C202.236 61.9239 203.156 61.7439 204.196 61.7439C205.156 61.7439 206.042 61.8906 206.856 62.1839C207.682 62.4639 208.382 62.8773 208.956 63.4239L208.276 65.0039C207.142 64.0039 205.776 63.5039 204.176 63.5039C203.189 63.5039 202.402 63.7239 201.816 64.1639C201.242 64.6039 200.956 65.1906 200.956 65.9239C200.956 66.4839 201.136 66.9306 201.496 67.2639C201.856 67.5973 202.456 67.8506 203.296 68.0239L205.416 68.4639C206.749 68.7439 207.742 69.1773 208.396 69.7639C209.049 70.3373 209.376 71.1173 209.376 72.1039C209.376 72.9306 209.156 73.6506 208.716 74.2639C208.276 74.8773 207.656 75.3573 206.856 75.7039C206.056 76.0373 205.102 76.2039 203.996 76.2039ZM216.018 76.2039C214.792 76.2039 213.878 75.8906 213.278 75.2639C212.678 74.6373 212.378 73.7306 212.378 72.5439V67.8239H210.478V66.2639H212.378V63.3239H214.398V66.2639H217.418V67.8239H214.398V72.3839C214.398 73.0906 214.545 73.6239 214.838 73.9839C215.145 74.3439 215.638 74.5239 216.318 74.5239C216.532 74.5239 216.738 74.5039 216.938 74.4639C217.138 74.4106 217.338 74.3506 217.538 74.2839L217.858 75.8039C217.658 75.9239 217.378 76.0173 217.018 76.0839C216.672 76.1639 216.338 76.2039 216.018 76.2039ZM223.043 76.2039C220.683 76.2039 219.503 74.8906 219.503 72.2639V66.2639H221.523V72.2839C221.523 73.0706 221.683 73.6506 222.003 74.0239C222.323 74.3973 222.83 74.5839 223.523 74.5839C224.283 74.5839 224.896 74.3306 225.363 73.8239C225.843 73.3173 226.083 72.6373 226.083 71.7839V66.2639H228.103V76.0239H226.143V74.4639C225.823 75.0373 225.396 75.4706 224.863 75.7639C224.33 76.0573 223.723 76.2039 223.043 76.2039ZM235.07 76.2039C234.217 76.2039 233.463 76.0039 232.81 75.6039C232.17 75.1906 231.67 74.6039 231.31 73.8439C230.95 73.0839 230.77 72.1839 230.77 71.1439C230.77 70.1039 230.95 69.2106 231.31 68.4639C231.67 67.7039 232.17 67.1173 232.81 66.7039C233.45 66.2906 234.203 66.0839 235.07 66.0839C235.803 66.0839 236.457 66.2439 237.03 66.5639C237.603 66.8839 238.03 67.3173 238.31 67.8639V61.9239H240.33V76.0239H238.35V74.3239C238.07 74.9106 237.637 75.3706 237.05 75.7039C236.477 76.0373 235.817 76.2039 235.07 76.2039ZM235.59 74.6439C236.417 74.6439 237.083 74.3439 237.59 73.7439C238.097 73.1439 238.35 72.2773 238.35 71.1439C238.35 70.0106 238.097 69.1506 237.59 68.5639C237.083 67.9639 236.417 67.6639 235.59 67.6639C234.75 67.6639 234.077 67.9639 233.57 68.5639C233.063 69.1506 232.81 70.0106 232.81 71.1439C232.81 72.2773 233.063 73.1439 233.57 73.7439C234.077 74.3439 234.75 74.6439 235.59 74.6439ZM248.146 76.2039C246.546 76.2039 245.286 75.7573 244.366 74.8639C243.446 73.9573 242.986 72.7239 242.986 71.1639C242.986 70.1639 243.186 69.2839 243.586 68.5239C244 67.7506 244.566 67.1506 245.286 66.7239C246.006 66.2973 246.833 66.0839 247.766 66.0839C249.113 66.0839 250.173 66.5173 250.946 67.3839C251.72 68.2373 252.106 69.4173 252.106 70.9239V71.6039H244.946C245.093 73.6306 246.166 74.6439 248.166 74.6439C248.726 74.6439 249.273 74.5573 249.806 74.3839C250.353 74.2106 250.866 73.9239 251.346 73.5239L251.946 74.9239C251.506 75.3239 250.94 75.6373 250.246 75.8639C249.553 76.0906 248.853 76.2039 248.146 76.2039ZM247.846 67.5039C247.006 67.5039 246.34 67.7639 245.846 68.2839C245.353 68.8039 245.053 69.4973 244.946 70.3639H250.406C250.366 69.4573 250.126 68.7573 249.686 68.2639C249.246 67.7573 248.633 67.5039 247.846 67.5039ZM254.708 76.0239V66.2639H256.668V67.8839C257.002 67.2973 257.455 66.8506 258.028 66.5439C258.615 66.2373 259.268 66.0839 259.988 66.0839C262.295 66.0839 263.448 67.3906 263.448 70.0039V76.0239H261.428V70.1239C261.428 69.2839 261.262 68.6706 260.928 68.2839C260.608 67.8973 260.102 67.7039 259.408 67.7039C258.595 67.7039 257.942 67.9639 257.448 68.4839C256.968 68.9906 256.728 69.6639 256.728 70.5039V76.0239H254.708ZM270.792 76.2039C269.565 76.2039 268.652 75.8906 268.052 75.2639C267.452 74.6373 267.152 73.7306 267.152 72.5439V67.8239H265.252V66.2639H267.152V63.3239H269.172V66.2639H272.192V67.8239H269.172V72.3839C269.172 73.0906 269.319 73.6239 269.612 73.9839C269.919 74.3439 270.412 74.5239 271.092 74.5239C271.305 74.5239 271.512 74.5039 271.712 74.4639C271.912 74.4106 272.112 74.3506 272.312 74.2839L272.632 75.8039C272.432 75.9239 272.152 76.0173 271.792 76.0839C271.445 76.1639 271.112 76.2039 270.792 76.2039Z" fill="#545567"/>
<rect x="28.2754" y="26.2305" width="50.2092" height="51.6537" rx="8" fill="#23BDEE"/>
<g clip-path="url(#clip0_113_672)">
<path d="M46.4765 37.8525C45.9318 37.8525 45.4902 38.3068 45.4902 38.8672V40.8964H47.4627V38.8672C47.4627 38.3068 47.0212 37.8525 46.4765 37.8525Z" fill="white"/>
<path d="M60.2831 37.8525C59.7384 37.8525 59.2969 38.3068 59.2969 38.8672V40.8964H61.2694V38.8672C61.2694 38.3068 60.8279 37.8525 60.2831 37.8525Z" fill="white"/>
<path d="M64.2286 40.8965H61.2698V44.955C61.2698 45.5154 60.8283 45.9697 60.2835 45.9697C59.7388 45.9697 59.2973 45.5154 59.2973 44.955V40.8965H47.4623V44.955C47.4623 45.5154 47.0207 45.9697 46.476 45.9697C45.9313 45.9697 45.4897 45.5154 45.4897 44.955V40.8965H42.531C40.8969 40.8965 39.5723 42.2593 39.5723 43.9404V63.2183C39.5723 64.8994 40.8969 66.2622 42.531 66.2622H64.2286C65.8626 66.2622 67.1873 64.8994 67.1873 63.2183V43.9404C67.1873 42.2593 65.8626 40.8965 64.2286 40.8965ZM65.2148 63.2183C65.2148 63.7787 64.7732 64.2329 64.2285 64.2329H42.531C41.9863 64.2329 41.5447 63.7787 41.5447 63.2183V50.0281H65.2148V63.2183Z" fill="white"/>
<path d="M47.4627 52.0571H45.4902C44.9455 52.0571 44.5039 52.5114 44.5039 53.0718C44.5039 53.6322 44.9455 54.0864 45.4902 54.0864H47.4627C48.0074 54.0864 48.4489 53.6322 48.4489 53.0718C48.4489 52.5114 48.0074 52.0571 47.4627 52.0571Z" fill="white"/>
<path d="M54.366 52.0571H52.3935C51.8488 52.0571 51.4072 52.5114 51.4072 53.0718C51.4072 53.6322 51.8488 54.0864 52.3935 54.0864H54.366C54.9107 54.0864 55.3523 53.6322 55.3523 53.0718C55.3523 52.5114 54.9107 52.0571 54.366 52.0571Z" fill="white"/>
<path d="M61.2703 52.0571H59.2978C58.7531 52.0571 58.3115 52.5114 58.3115 53.0718C58.3115 53.6322 58.7531 54.0864 59.2978 54.0864H61.2703C61.815 54.0864 62.2565 53.6322 62.2565 53.0718C62.2565 52.5114 61.8149 52.0571 61.2703 52.0571Z" fill="white"/>
<path d="M47.4627 56.1157H45.4902C44.9455 56.1157 44.5039 56.57 44.5039 57.1304C44.5039 57.6908 44.9455 58.145 45.4902 58.145H47.4627C48.0074 58.145 48.4489 57.6908 48.4489 57.1304C48.4489 56.57 48.0074 56.1157 47.4627 56.1157Z" fill="white"/>
<path d="M54.366 56.1157H52.3935C51.8488 56.1157 51.4072 56.57 51.4072 57.1304C51.4072 57.6908 51.8488 58.145 52.3935 58.145H54.366C54.9107 58.145 55.3523 57.6908 55.3523 57.1304C55.3523 56.57 54.9107 56.1157 54.366 56.1157Z" fill="white"/>
<path d="M61.2703 56.1157H59.2978C58.7531 56.1157 58.3115 56.57 58.3115 57.1304C58.3115 57.6908 58.7531 58.145 59.2978 58.145H61.2703C61.815 58.145 62.2565 57.6908 62.2565 57.1304C62.2565 56.57 61.8149 56.1157 61.2703 56.1157Z" fill="white"/>
<path d="M47.4627 60.1743H45.4902C44.9455 60.1743 44.5039 60.6286 44.5039 61.189C44.5039 61.7493 44.9455 62.2035 45.4902 62.2035H47.4627C48.0074 62.2035 48.4489 61.7493 48.4489 61.1889C48.4489 60.6285 48.0074 60.1743 47.4627 60.1743Z" fill="white"/>
<path d="M54.366 60.1743H52.3935C51.8488 60.1743 51.4072 60.6286 51.4072 61.189C51.4072 61.7493 51.8488 62.2036 52.3935 62.2036H54.366C54.9107 62.2036 55.3523 61.7493 55.3523 61.189C55.3523 60.6286 54.9107 60.1743 54.366 60.1743Z" fill="white"/>
<path d="M61.2703 60.1743H59.2978C58.7531 60.1743 58.3115 60.6286 58.3115 61.189C58.3115 61.7493 58.7531 62.2036 59.2978 62.2036H61.2703C61.815 62.2036 62.2565 61.7493 62.2565 61.189C62.2565 60.6286 61.8149 60.1743 61.2703 60.1743Z" fill="white"/>
</g>
<defs>
<filter id="filter0_b_113_672" x="-19.8418" y="-19.5967" width="341.255" height="143.308" filterUnits="userSpaceOnUse" color-interpolation-filters="sRGB">
<feFlood flood-opacity="0" result="BackgroundImageFix"/>
<feGaussianBlur in="BackgroundImageFix" stdDeviation="10"/>
<feComposite in2="SourceAlpha" operator="in" result="effect1_backgroundBlur_113_672"/>
<feBlend mode="normal" in="SourceGraphic" in2="effect1_backgroundBlur_113_672" result="shape"/>
</filter>
<clipPath id="clip0_113_672">
<rect width="27.6151" height="28.4095" fill="white" transform="translate(39.5723 37.8525)"/>
</clipPath>
</defs>
</svg>
